# Blender v2.78 (sub 0) OBJ File: ''
# www.blender.org
o Cube_Cube.001
v -3.000000 -3.000000 3.000000
v -3.000000 3.000000 3.000000
v -3.000000 -3.000000 -3.000000
v -3.000000 3.000000 -3.000000
v 3.000000 -3.000000 3.000000
v 3.000000 3.000000 3.000000
v 3.000000 -3.000000 -3.000000
v 3.000000 3.000000 -3.000000
v 23.000000 3.000000 -3.000000
v 23.000000 -3.000000 -3.000000
v 23.000000 -3.000000 3.000000
v 23.000000 3.000000 3.000000
v -3.000000 -3.000000 23.000000
v -3.000000 3.000000 23.000000
v 3.000000 3.000000 23.000000
v 3.000000 -3.000000 23.000000
vt 0.1154 0.6154
vt 0.2308 0.5000
vt 0.2308 0.6154
vt 0.0000 1.0000
vt 0.1154 0.8846
vt 0.1154 1.0000
vt 0.8846 0.3846
vt 1.0000 0.0000
vt 1.0000 0.3846
vt 0.1154 1.0000
vt 0.3846 0.5000
vt 0.5000 0.3846
vt 0.5000 0.5000
vt 1.0000 0.5000
vt 0.0000 0.8846
vt 0.1154 0.5000
vt 0.3462 0.8846
vt 0.4615 0.5000
vt 0.4615 0.8846
vt 0.0000 0.3846
vt 0.3846 0.3846
vt 0.5000 0.0000
vt 0.8846 0.5000
vt 0.5000 0.3846
vt 0.2308 0.8846
vt 0.3462 0.5000
vt 0.1154 0.5000
vt 0.8846 0.0000
vt 0.2308 1.0000
vt 0.0000 0.5000
vt 0.3462 0.5000
vt 0.0000 0.5000
vt 0.3846 0.0000
vt 0.5000 0.5000
vt 0.2308 0.5000
vn -1.0000 0.0000 0.0000
vn 0.0000 0.0000 -1.0000
vn 0.0000 1.0000 0.0000
vn 0.0000 -1.0000 0.0000
vn 0.0000 0.0000 1.0000
vn 1.0000 0.0000 0.0000
s off
f 2/1/1 3/2/1 1/3/1
f 4/4/2 7/5/2 3/6/2
f 6/7/3 9/8/3 8/9/3
f 1/3/1 14/10/1 2/1/1
f 7/11/4 1/12/4 3/13/4
f 4/14/3 6/7/3 8/9/3
f 8/15/2 10/16/2 7/5/2
f 5/17/5 12/18/5 6/19/5
f 7/11/4 11/20/4 5/21/4
f 5/21/4 13/22/4 1/12/4
f 2/23/3 15/24/3 6/7/3
f 6/25/6 16/26/6 5/17/6
f 2/1/1 4/27/1 3/2/1
f 4/4/2 8/15/2 7/5/2
f 6/7/3 12/28/3 9/8/3
f 1/3/1 13/29/1 14/10/1
f 7/11/4 5/21/4 1/12/4
f 4/14/3 2/23/3 6/7/3
f 8/15/2 9/30/2 10/16/2
f 5/17/5 11/31/5 12/18/5
f 7/11/4 10/32/4 11/20/4
f 5/21/4 16/33/4 13/22/4
f 2/23/3 14/34/3 15/24/3
f 6/25/6 15/35/6 16/26/6
